<?xml version="1.0" standalone="no"?>
<!DOCTYPE svg PUBLIC "-//W3C//DTD SVG 20010904//EN"
 "http://www.w3.org/TR/2001/REC-SVG-20010904/DTD/svg10.dtd">
<svg version="1.0" xmlns="http://www.w3.org/2000/svg"
 width="247.000000pt" height="247.000000pt" viewBox="0 0 247.000000 247.000000"
 preserveAspectRatio="xMidYMid meet">
<metadata>
Created by potrace 1.14, written by Peter Selinger 2001-2017
</metadata>
<g transform="translate(0.000000,247.000000) scale(0.100000,-0.100000)"
fill="#000000" stroke="none">
<path d="M81 2422 c-19 -9 -44 -30 -55 -45 -21 -28 -21 -32 -21 -1137 0 -1105
0 -1109 21 -1137 11 -15 36 -36 55 -45 32 -17 107 -18 1154 -18 1047 0 1122 1
1154 18 19 9 44 30 55 45 21 28 21 32 21 1137 0 1105 0 1109 -21 1137 -11 15
-36 36 -55 45 -32 17 -107 18 -1154 18 -1047 0 -1122 -1 -1154 -18z m1187
-600 c23 -12 52 -37 64 -55 21 -32 23 -33 67 -26 25 4 136 8 246 8 l199 1 -41
-42 c-60 -62 -114 -151 -212 -348 -196 -394 -230 -546 -126 -566 48 -9 213 4
300 23 93 21 155 53 197 104 54 64 77 34 39 -53 -28 -67 -66 -105 -127 -127
-51 -19 -77 -21 -339 -21 -278 0 -286 1 -306 21 -19 19 -21 29 -16 94 10 131
100 356 266 665 49 91 87 166 86 168 -5 6 -128 -18 -177 -34 -34 -11 -53 -25
-67 -48 -11 -18 -38 -41 -58 -51 -21 -10 -45 -22 -55 -26 -25 -12 -96 26 -104
55 -10 40 -1 58 36 70 70 23 80 105 15 132 -120 50 -268 -60 -235 -175 13 -47
49 -92 171 -211 89 -88 110 -114 128 -163 55 -150 -1 -295 -150 -384 -102 -61
-250 -80 -374 -47 -116 30 -165 80 -165 166 0 106 78 173 172 148 54 -15 66
-43 34 -81 -42 -50 -31 -126 23 -154 42 -21 124 -19 170 5 76 38 117 114 109
201 -6 60 -44 119 -157 243 -102 113 -125 159 -125 247 0 107 55 196 154 249
58 31 107 40 210 37 85 -2 113 -7 148 -25z"/>
</g>
</svg>
