<svg width="29" height="29" viewBox="0 0 29 29" fill="none" xmlns="http://www.w3.org/2000/svg">
<g filter="url(#filter0_d)">
<path d="M2.5 5H0V22.5C0 23.875 1.125 25 2.5 25H20V22.5H2.5V5ZM22.5 0H7.5C6.125 0 5 1.125 5 2.5V17.5C5 18.875 6.125 20 7.5 20H22.5C23.875 20 25 18.875 25 17.5V2.5C25 1.125 23.875 0 22.5 0ZM22.5 17.5H7.5V2.5H22.5V17.5ZM10 8.75H20V11.25H10V8.75ZM10 12.5H15V15H10V12.5ZM10 5H20V7.5H10V5Z" fill="url(#paint0_linear)"/>
</g>
<defs>
<filter id="filter0_d" x="0" y="0" width="29" height="29" filterUnits="userSpaceOnUse" color-interpolation-filters="sRGB">
<feFlood flood-opacity="0" result="BackgroundImageFix"/>
<feColorMatrix in="SourceAlpha" type="matrix" values="0 0 0 0 0 0 0 0 0 0 0 0 0 0 0 0 0 0 127 0"/>
<feOffset dx="2" dy="2"/>
<feGaussianBlur stdDeviation="1"/>
<feColorMatrix type="matrix" values="0 0 0 0 0.345098 0 0 0 0 0.168627 0 0 0 0 0.576471 0 0 0 0.25 0"/>
<feBlend mode="normal" in2="BackgroundImageFix" result="effect1_dropShadow"/>
<feBlend mode="normal" in="SourceGraphic" in2="effect1_dropShadow" result="shape"/>
</filter>
<linearGradient id="paint0_linear" x1="0.798721" y1="1.22161e-05" x2="25.6926" y2="0.709772" gradientUnits="userSpaceOnUse">
<stop stop-color="#3672E9"/>
<stop offset="1" stop-color="#B036E9"/>
</linearGradient>
</defs>
</svg>
