<svg width="53" height="53" viewBox="0 0 53 53" fill="none" xmlns="http://www.w3.org/2000/svg">
<path d="M40.4586 28.3063C40.2034 28.0507 39.9004 27.8479 39.5668 27.7096C39.2331 27.5712 38.8755 27.5 38.5143 27.5C38.1532 27.5 37.7956 27.5712 37.4619 27.7096C37.1283 27.8479 36.8253 28.0507 36.5701 28.3063L32.1866 32.6898C30.1543 32.0848 26.3621 30.7098 23.9586 28.3063C21.5551 25.9028 20.1801 22.1106 19.5751 20.0783L23.9586 15.6948C24.2142 15.4396 24.417 15.1366 24.5553 14.803C24.6937 14.4693 24.7649 14.1117 24.7649 13.7506C24.7649 13.3894 24.6937 13.0318 24.5553 12.6981C24.417 12.3645 24.2142 12.0615 23.9586 11.8063L12.9586 0.806303C12.7034 0.550702 12.4004 0.347923 12.0668 0.209569C11.7331 0.0712142 11.3755 0 11.0143 0C10.6532 0 10.2956 0.0712142 9.96194 0.209569C9.62832 0.347923 9.32526 0.550702 9.0701 0.806303L1.6121 8.2643C0.567096 9.3093 -0.0214045 10.7448 0.000595498 12.2106C0.0638455 16.1266 1.1006 29.7281 11.8201 40.4476C22.5396 51.1671 36.1411 52.2011 40.0598 52.2671H40.1368C41.5888 52.2671 42.9611 51.6951 44.0006 50.6556L51.4586 43.1976C51.7142 42.9424 51.917 42.6393 52.0553 42.3057C52.1937 41.9721 52.2649 41.6145 52.2649 41.2533C52.2649 40.8921 52.1937 40.5345 52.0553 40.2009C51.917 39.8673 51.7142 39.5642 51.4586 39.3091L40.4586 28.3063ZM40.1093 46.7643C36.6773 46.7066 24.9348 45.7853 15.7086 36.5563C6.4521 27.2998 5.5556 15.5161 5.5006 12.1528L11.0143 6.63905L18.1258 13.7506L14.5701 17.3063C14.2469 17.6293 14.0092 18.0277 13.8786 18.4656C13.748 18.9035 13.7286 19.367 13.8221 19.8143C13.8881 20.1306 15.5023 27.6298 20.0673 32.1948C24.6323 36.7598 32.1316 38.3741 32.4478 38.4401C32.8948 38.5362 33.3588 38.5183 33.7971 38.3881C34.2354 38.2579 34.6339 38.0194 34.9558 37.6948L38.5143 34.1391L45.6259 41.2506L40.1093 46.7643V46.7643Z" fill="url(#paint0_linear)"/>
<defs>
<linearGradient id="paint0_linear" x1="52.2649" y1="0" x2="-10.2763" y2="19.7876" gradientUnits="userSpaceOnUse">
<stop stop-color="#DDCEFF"/>
<stop offset="1" stop-color="#FBDFF0"/>
</linearGradient>
</defs>
</svg>
