<svg width="29" height="28" viewBox="0 0 29 28" fill="none" xmlns="http://www.w3.org/2000/svg">
<g filter="url(#filter0_d)">
<path d="M15 5V2.5H10V5H15ZM2.5 7.5V21.25H22.5V7.5H2.5ZM22.5 5C23.8875 5 25 6.1125 25 7.5V21.25C25 22.6375 23.8875 23.75 22.5 23.75H2.5C1.1125 23.75 0 22.6375 0 21.25L0.0125 7.5C0.0125 6.1125 1.1125 5 2.5 5H7.5V2.5C7.5 1.1125 8.6125 0 10 0H15C16.3875 0 17.5 1.1125 17.5 2.5V5H22.5Z" fill="url(#paint0_linear)"/>
</g>
<defs>
<filter id="filter0_d" x="0" y="0" width="29" height="27.75" filterUnits="userSpaceOnUse" color-interpolation-filters="sRGB">
<feFlood flood-opacity="0" result="BackgroundImageFix"/>
<feColorMatrix in="SourceAlpha" type="matrix" values="0 0 0 0 0 0 0 0 0 0 0 0 0 0 0 0 0 0 127 0"/>
<feOffset dx="2" dy="2"/>
<feGaussianBlur stdDeviation="1"/>
<feColorMatrix type="matrix" values="0 0 0 0 0.345098 0 0 0 0 0.168627 0 0 0 0 0.576471 0 0 0 0.25 0"/>
<feBlend mode="normal" in2="BackgroundImageFix" result="effect1_dropShadow"/>
<feBlend mode="normal" in="SourceGraphic" in2="effect1_dropShadow" result="shape"/>
</filter>
<linearGradient id="paint0_linear" x1="0.798721" y1="1.16053e-05" x2="25.6904" y2="0.747061" gradientUnits="userSpaceOnUse">
<stop stop-color="#3672E9"/>
<stop offset="1" stop-color="#B036E9"/>
</linearGradient>
</defs>
</svg>
