<svg width="33" height="32" viewBox="0 0 33 32" fill="none" xmlns="http://www.w3.org/2000/svg">
<g filter="url(#filter0_d)">
<path d="M19 7V4.5H14V7H19ZM6.5 9.5V23.25H26.5V9.5H6.5ZM26.5 7C27.8875 7 29 8.1125 29 9.5V23.25C29 24.6375 27.8875 25.75 26.5 25.75H6.5C5.1125 25.75 4 24.6375 4 23.25L4.0125 9.5C4.0125 8.1125 5.1125 7 6.5 7H11.5V4.5C11.5 3.1125 12.6125 2 14 2H19C20.3875 2 21.5 3.1125 21.5 4.5V7H26.5Z" fill="#3672E9"/>
</g>
<defs>
<filter id="filter0_d" x="0" y="0" width="33" height="31.75" filterUnits="userSpaceOnUse" color-interpolation-filters="sRGB">
<feFlood flood-opacity="0" result="BackgroundImageFix"/>
<feColorMatrix in="SourceAlpha" type="matrix" values="0 0 0 0 0 0 0 0 0 0 0 0 0 0 0 0 0 0 127 0"/>
<feOffset dy="2"/>
<feGaussianBlur stdDeviation="2"/>
<feColorMatrix type="matrix" values="0 0 0 0 0.211765 0 0 0 0 0.447059 0 0 0 0 0.913725 0 0 0 0.46 0"/>
<feBlend mode="normal" in2="BackgroundImageFix" result="effect1_dropShadow"/>
<feBlend mode="normal" in="SourceGraphic" in2="effect1_dropShadow" result="shape"/>
</filter>
</defs>
</svg>
