<svg width="59" height="59" viewBox="0 0 59 59" fill="none" xmlns="http://www.w3.org/2000/svg">
<path d="M15.75 29.5L27.5357 39.3214L43.25 19.6786M29.5 57C25.8886 57 22.3127 56.2887 18.9762 54.9067C15.6398 53.5247 12.6082 51.499 10.0546 48.9454C7.50095 46.3918 5.47532 43.3602 4.09331 40.0238C2.71131 36.6873 2 33.1114 2 29.5C2 25.8886 2.71131 22.3127 4.09331 18.9762C5.47532 15.6398 7.50095 12.6082 10.0546 10.0546C12.6082 7.50095 15.6398 5.47532 18.9762 4.09331C22.3127 2.71131 25.8886 2 29.5 2C36.7935 2 43.7882 4.89731 48.9454 10.0546C54.1027 15.2118 57 22.2065 57 29.5C57 36.7935 54.1027 43.7882 48.9454 48.9454C43.7882 54.1027 36.7935 57 29.5 57Z" stroke="url(#paint0_linear)" stroke-width="4"/>
<defs>
<linearGradient id="paint0_linear" x1="57" y1="2" x2="-8.81356" y2="22.8238" gradientUnits="userSpaceOnUse">
<stop stop-color="#DDCEFF"/>
<stop offset="1" stop-color="#FBDFF0"/>
</linearGradient>
</defs>
</svg>
