<svg width="29" height="28" viewBox="0 0 29 28" fill="none" xmlns="http://www.w3.org/2000/svg">
<g filter="url(#filter0_d)">
<path d="M5.1875 2.60417C5.1875 4.04271 4.03125 5.20833 2.60417 5.20833C1.17708 5.20833 0.0208333 4.04271 0.0208333 2.60417C0.0208333 1.16667 1.17708 0 2.60417 0C4.03125 0 5.1875 1.16667 5.1875 2.60417ZM5.20833 7.29167H0V23.9583H5.20833V7.29167ZM13.5229 7.29167H8.34792V23.9583H13.524V15.2094C13.524 10.3448 19.8042 9.94688 19.8042 15.2094V23.9583H25V13.4052C25 5.19688 15.7062 5.49583 13.5229 9.53646V7.29167Z" fill="url(#paint0_linear)"/>
</g>
<defs>
<filter id="filter0_d" x="0" y="0" width="29" height="27.9583" filterUnits="userSpaceOnUse" color-interpolation-filters="sRGB">
<feFlood flood-opacity="0" result="BackgroundImageFix"/>
<feColorMatrix in="SourceAlpha" type="matrix" values="0 0 0 0 0 0 0 0 0 0 0 0 0 0 0 0 0 0 127 0"/>
<feOffset dx="2" dy="2"/>
<feGaussianBlur stdDeviation="1"/>
<feColorMatrix type="matrix" values="0 0 0 0 0.345098 0 0 0 0 0.168627 0 0 0 0 0.576471 0 0 0 0.25 0"/>
<feBlend mode="normal" in2="BackgroundImageFix" result="effect1_dropShadow"/>
<feBlend mode="normal" in="SourceGraphic" in2="effect1_dropShadow" result="shape"/>
</filter>
<linearGradient id="paint0_linear" x1="0.798721" y1="1.17071e-05" x2="25.6908" y2="0.740577" gradientUnits="userSpaceOnUse">
<stop stop-color="#3672E9"/>
<stop offset="1" stop-color="#B036E9"/>
</linearGradient>
</defs>
</svg>
