<svg width="25" height="25" viewBox="0 0 25 25" fill="none" xmlns="http://www.w3.org/2000/svg">
<path d="M24.3072 20.1223H22.5872C22.4529 20.1223 22.341 20.2342 22.341 20.3684V22.3442H2.20917V2.20917H22.3442V4.18495C22.3442 4.31922 22.4561 4.43112 22.5904 4.43112H24.3104C24.4447 4.43112 24.5566 4.32242 24.5566 4.18495V0.981496C24.5566 0.437997 24.1186 0 23.5751 0H0.981496C0.437997 0 0 0.437997 0 0.981496V23.5719C0 24.1154 0.437997 24.5534 0.981496 24.5534H23.5719C24.1154 24.5534 24.5534 24.1154 24.5534 23.5719V20.3684C24.5534 20.231 24.4415 20.1223 24.3072 20.1223ZM24.9019 12.0753L20.3652 8.49458C20.1958 8.3603 19.9496 8.48179 19.9496 8.69599V11.1258H9.91087C9.7702 11.1258 9.65511 11.2408 9.65511 11.3815V13.1719C9.65511 13.3125 9.7702 13.4276 9.91087 13.4276H19.9496V15.8574C19.9496 16.0716 20.199 16.1931 20.3652 16.0588L24.9019 12.4781C24.9324 12.4542 24.9572 12.4236 24.9742 12.3887C24.9912 12.3538 25 12.3155 25 12.2767C25 12.2379 24.9912 12.1996 24.9742 12.1647C24.9572 12.1298 24.9324 12.0992 24.9019 12.0753V12.0753Z" fill="white"/>
</svg>
