<svg width="25" height="25" viewBox="0 0 25 25" fill="none" xmlns="http://www.w3.org/2000/svg">
<path d="M12.5 0C5.59722 0 0 5.59722 0 12.5V22.2222C0 23.75 1.25 25 2.77778 25H8.33333V13.8889H2.77778V12.5C2.77778 7.125 7.125 2.77778 12.5 2.77778C17.875 2.77778 22.2222 7.125 22.2222 12.5V13.8889H16.6667V25H22.2222C23.75 25 25 23.75 25 22.2222V12.5C25 5.59722 19.4028 0 12.5 0ZM5.55556 16.6667V22.2222H2.77778V16.6667H5.55556ZM22.2222 22.2222H19.4444V16.6667H22.2222V22.2222Z" fill="#3672E9"/>
</svg>
