<svg width="29" height="29" viewBox="0 0 29 29" fill="none" xmlns="http://www.w3.org/2000/svg">
<g filter="url(#filter0_d)">
<path d="M12.5 0C5.59722 0 0 5.59722 0 12.5V22.2222C0 23.75 1.25 25 2.77778 25H8.33333V13.8889H2.77778V12.5C2.77778 7.125 7.125 2.77778 12.5 2.77778C17.875 2.77778 22.2222 7.125 22.2222 12.5V13.8889H16.6667V25H22.2222C23.75 25 25 23.75 25 22.2222V12.5C25 5.59722 19.4028 0 12.5 0ZM5.55556 16.6667V22.2222H2.77778V16.6667H5.55556ZM22.2222 22.2222H19.4444V16.6667H22.2222V22.2222Z" fill="url(#paint0_linear)"/>
</g>
<defs>
<filter id="filter0_d" x="0" y="0" width="29" height="29" filterUnits="userSpaceOnUse" color-interpolation-filters="sRGB">
<feFlood flood-opacity="0" result="BackgroundImageFix"/>
<feColorMatrix in="SourceAlpha" type="matrix" values="0 0 0 0 0 0 0 0 0 0 0 0 0 0 0 0 0 0 127 0"/>
<feOffset dx="2" dy="2"/>
<feGaussianBlur stdDeviation="1"/>
<feColorMatrix type="matrix" values="0 0 0 0 0.345098 0 0 0 0 0.168627 0 0 0 0 0.576471 0 0 0 0.25 0"/>
<feBlend mode="normal" in2="BackgroundImageFix" result="effect1_dropShadow"/>
<feBlend mode="normal" in="SourceGraphic" in2="effect1_dropShadow" result="shape"/>
</filter>
<linearGradient id="paint0_linear" x1="0.798721" y1="1.22161e-05" x2="25.6926" y2="0.709772" gradientUnits="userSpaceOnUse">
<stop stop-color="#3672E9"/>
<stop offset="1" stop-color="#B036E9"/>
</linearGradient>
</defs>
</svg>
